<!DOCTYPE svg PUBLIC "-//W3C//DTD SVG 1.1//EN" "http://www.w3.org/Graphics/SVG/1.1/DTD/svg11.dtd">
<!-- Uploaded to: SVG Repo, www.svgrepo.com, Transformed by: SVG Repo Mixer Tools -->
<svg version="1.1" id="Uploaded to svgrepo.com" xmlns="http://www.w3.org/2000/svg" xmlns:xlink="http://www.w3.org/1999/xlink" width="800px" height="800px" viewBox="0 0 32 32" xml:space="preserve" fill="#3191b4">
<g id="SVGRepo_bgCarrier" stroke-width="0"/>
<g id="SVGRepo_tracerCarrier" stroke-linecap="round" stroke-linejoin="round"/>
<g id="SVGRepo_iconCarrier"> <style type="text/css"> .stone_een{fill:#3191b4;} .st0{fill:#3191b4;} </style> <path class="stone_een" d="M17,4c0,0.552-0.448,1-1,1s-1-0.448-1-1c0-0.552,0.448-1,1-1S17,3.448,17,4z M25,6v2c0,3.314-2.686,6-6,6 v5l0.293,0.293c0.391,0.391,0.391,1.024,0,1.414L18,22l1.293,1.293c0.391,0.391,0.391,1.024,0,1.414L18,26l1.368,1.367 c0.397,0.397,0.389,1.042-0.016,1.43l-2.645,2.527c-0.393,0.375-1.014,0.368-1.398-0.016l-2.016-2.016 C13.105,29.105,13,28.851,13,28.586V14h0c-3.314,0-6-2.686-6-6V6c0-3.314,2.686-6,6-6h6C22.314,0,25,2.686,25,6z M16,14.5 c0-0.276-0.224-0.5-0.5-0.5S15,14.224,15,14.5v15c0,0.276,0.224,0.5,0.5,0.5s0.5-0.224,0.5-0.5V14.5z M18,4c0-1.103-0.897-2-2-2 c-1.103,0-2,0.897-2,2c0,1.103,0.897,2,2,2C17.103,6,18,5.103,18,4z"/> </g>
</svg>