<!DOCTYPE svg PUBLIC "-//W3C//DTD SVG 1.1//EN" "http://www.w3.org/Graphics/SVG/1.1/DTD/svg11.dtd">
<!-- Uploaded to: SVG Repo, www.svgrepo.com, Transformed by: SVG Repo Mixer Tools -->
<svg width="800px" height="800px" viewBox="0 0 24.00 24.00" fill="none" xmlns="http://www.w3.org/2000/svg" stroke="#3191b4" stroke-width="1.032">
<g id="SVGRepo_bgCarrier" stroke-width="0"/>
<g id="SVGRepo_tracerCarrier" stroke-linecap="round" stroke-linejoin="round" stroke="#CCCCCC" stroke-width="0.8160000000000001"/>
<g id="SVGRepo_iconCarrier">
<path d="M2 6a2 2 0 0 1 2-2h9a2 2 0 0 1 2 2v2a1 1 0 1 1-2 0V6H4v12h9v-2a1 1 0 1 1 2 0v2a2 2 0 0 1-2 2H4a2 2 0 0 1-2-2V6zm15.293 2.293a1 1 0 0 1 1.414 0l3 3a1 1 0 0 1 0 1.414l-3 3a1 1 0 0 1-1.414-1.414L18.586 13H9a1 1 0 1 1 0-2h9.586l-1.293-1.293a1 1 0 0 1 0-1.414z" fill="#3191b4"/>
</g>
</svg>